<?xml version="1.0" encoding="UTF-8"?>
<svg id="uuid-bbb06c0b-f410-4335-b18d-455277a0a17d" data-name="Layer 1" xmlns="http://www.w3.org/2000/svg" viewBox="0 0 595 495.05">
  <path d="M335.24,345.79c75.62,0,137.14-61.52,137.14-137.13V46.51h-101.38c-51.54,0-93.48,41.93-93.48,93.48v16.72h36.21L0,495.05h50.45L342.11,180.5l-26.54-24.61v-14.08c0-30.51,24.82-55.32,55.32-55.32h63.23v123.99c0,54.58-44.4,98.98-98.98,98.98h-45.11l88.37-95.31-28.83-26.73L64.32,495.05h53.62l112.3-121.11,29.35-31.66,28.38,35.09,15.02,18.56,80.16,99.11h51.02l-120.74-149.26h21.83Z" style="fill: #000; stroke-width: 0px;"/>
  <path d="M370.99,36.33h191.18L595,.08h-83.3v-.08h-140.81c-78.19,0-141.8,63.61-141.8,141.8v14.9h38.25v-16.72c0-57.15,46.5-103.65,103.65-103.65Z" style="fill: #000; stroke-width: 0px;"/>
  <path d="M482.55,208.65c0,81.23-66.08,147.31-147.31,147.31h-.51l112.51,139.08h47.5l-90.9-112.36c68.34-27.36,116.75-94.22,116.75-172.21V82.25l32.36-35.75h-70.41v162.15Z" style="fill: #000; stroke-width: 0px;"/>
  <line x1="342.11" y1="180.5" x2="349.57" y2="187.42" style="fill: #000; stroke-width: 0px;"/>
</svg>